<svg xmlns="http://www.w3.org/2000/svg" viewBox="0 0 91.41 100">
	<path d="M47.4,63l-1,1c-3.46,3.83-5.79,9.23-6.87,15.94-0.65,4-.75,11.94-0.18,14.6,0.85,4,.85,4,0.06,4.78a2.16,2.16,0,0,1-2.73.41h0c-0.63-.26-0.79-0.82-1.16-4.35-0.24-2.23-.53-5.5-0.64-7.27-0.29-4.47-2.94-12.43-5.18-15.58l-0.75-1.05-1,1.57a12,12,0,0,1-2.35,2.6c-1.21.92-1.62,1-4.05,1-3.35,0-5.22-.83-8.33-3.71a20.12,20.12,0,0,1-5.65-8.69,112.68,112.68,0,0,0-6.41-13.4L0,49H3.33c7.79,0,14.33,1.14,18.78,3.26,2.67,1.28,5.89,4.1,6.88,6.06a14.38,14.38,0,0,1,1.07,8.45,11.33,11.33,0,0,1-.48,2.53,16.16,16.16,0,0,1-2.93-2.48,53.27,53.27,0,0,0-9.87-7.58c-2.41-1.38-2.58-1.18-.29.35a50.79,50.79,0,0,1,9.29,8.24c3,3.19,3.56,3.91,3.8,1.47,0.31,0.22.31,1.13,2,3.67a45.87,45.87,0,0,1,3,5.32l1,2.31,0.27-2.13a32.15,32.15,0,0,1,6.74-15.12l2.19-3m13.58,8.4A35.9,35.9,0,0,1,48.63,64L47.4,63l1.83-2.09a107,107,0,0,1,7.85-7.78l1.5-1.39L64,51.68c5,0,5.76-.14,9.16-1.17s5.47-1.93,3.11-1.36a40.08,40.08,0,0,1-9.3.75c-3.56-.35-4.82-0.59-4.82-0.9a18.9,18.9,0,0,1,3-2.64c1.65-1.29,4-3.34,5.27-4.54,2.07-2,2.43-2.22,4.38-2.51a17.19,17.19,0,0,0,7.65-3.37,9.79,9.79,0,0,0,1.73-1.45,15.61,15.61,0,0,0-2.54.79c-2.25.82-6.63,1.68-6.63,1.3a20.6,20.6,0,0,1,1.21-2.17A35.66,35.66,0,0,0,80.91,21l0.24-2.49-1.24,3a103.18,103.18,0,0,1-6.14,11.84c-0.63.95-1.11,1.36-1.32,1.14s-0.28-2.29-.2-5c0.08-2.57.11-4.67,0.08-4.67s-0.56,1.35-1.15,3c-1.28,3.53-1.68,6.57-1.18,8.79l0.37,1.6L68.5,39.82c-1,1-3.46,2.93-5.42,4.39l-3.56,2.66-0.27-1a41.92,41.92,0,0,1-.62-11.19,31.26,31.26,0,0,0,.21-3.8c-0.19-.19-1.94,6-2.35,8.26-0.52,2.91-.45,6.52.16,8.24,0.48,1.33.46,1.47-.18,2a68.52,68.52,0,0,0-7.86,7.36,31.72,31.72,0,0,1-3.77,3.66c-0.81.1-4.18-3.79-5.37-6.2-2.16-4.38-2.32-9-.48-14.37A33.37,33.37,0,0,1,52.2,23.72a61.54,61.54,0,0,1,6.07-2.59C67,17.8,69.78,16.3,73.38,13A60.28,60.28,0,0,0,81,3.34L83.17,0l1.28,2.28a52.2,52.2,0,0,1,6.89,24c0.53,9.23-1.74,19.89-5.79,27.29C81.31,61.3,74.69,67.07,68.05,68.8a23,23,0,0,1-9.62,0h0Z"/>
</svg>