<svg xmlns="http://www.w3.org/2000/svg" viewBox="0 0 100 76.89">
	<title>ico-services-2</title>
	<path d="M22.64,76.55a9.55,9.55,0,1,1,4.49.05,8.19,8.19,0,0,1-4.49-.05h0ZM77,76.71a11.69,11.69,0,0,1-2.12-.76,9.54,9.54,0,1,1,8.84-16.89,9.92,9.92,0,0,1,4.71,8.89A9.7,9.7,0,0,1,77,76.71ZM2.13,64.85A3,3,0,0,1,.54,63.27L0,62.23v-59l0.51-1A3.27,3.27,0,0,1,1.92.61l0.91-.53L34,0C56.62,0,65.41,0,66.15.18a3.61,3.61,0,0,1,2.59,2c0.36,0.7.38,1.18,0.38,7v6.25l7.57,0.06,7.57,0.06L85.18,16c1.75,1,3,2.69,6.26,8.58,1.7,3,4.05,7.2,5.22,9.24a48.2,48.2,0,0,1,2.67,5.27l0.55,1.56,0.06,10.75L100,62.2l-0.55,1.06a3.06,3.06,0,0,1-1.59,1.6c-1,.5-1.21.54-3.26,0.54H92.38l-0.12-.54a14.06,14.06,0,0,0-6.11-9.05A13.56,13.56,0,0,0,65.66,64l-0.34,1.41H38.53l-0.32-1.32a17.06,17.06,0,0,0-1.09-2.88,13.53,13.53,0,0,0-22.65-2.54,16.2,16.2,0,0,0-2.68,5.42L11.47,65.4H3.17l-1-.54h0ZM93.54,42.07a5.74,5.74,0,0,0-.93-2.12c-0.25-.41-2.26-4.1-4.46-8.2s-4.26-7.72-4.58-8L83,23.12l-5-.06L73,23V42.35H83.29c8.84,0,10.25,0,10.25-.28h0Z"/>
</svg>