<svg xmlns="http://www.w3.org/2000/svg" viewBox="0 0 95.83 100">
	<title>ico-services-3</title>
	<path d="M77.84,99.22c-1.3-.64-10.71-10.53-11.13-11.7-0.07-.19,3.56-4,8.05-8.51l8.18-8.16,4.87,4.24c7.11,6.18,8.74,9,7.75,13.43-0.8,3.62-4.92,8.39-9.06,10.5A11.19,11.19,0,0,1,77.84,99.22Zm-16-17.41c-2.34-2.83-5.16-6.23-6.29-7.57C54.1,72.45,53.67,71.6,54,71s3.27-3.57,6.75-7l6.33-6.21,1.12,0.89c0.62,0.49,4.12,3.38,7.78,6.42l6.66,5.53L74.5,78.8C70,83.29,66.31,87,66.24,87s-2-2.31-4.36-5.14h0ZM54.77,63.54a29,29,0,0,1-2.95-3.39c-0.79-1.21-.79-1.42,0-3.82,0.46-1.4,4.84-10.43,9.74-20.08s8.91-18,8.91-18.46-2.66-3.5-6.54-7.25C59,5.76,57.39,3.92,57.39,3A3,3,0,0,1,61.89.43c2,1.36,13.84,13.35,14.62,14.86s0.72,1.7,0,3.93c-0.44,1.32-4.81,10.33-9.71,20s-8.91,17.92-8.91,18.29a6,6,0,0,0,1.69,2.31,7.08,7.08,0,0,1,1.69,2.1c0,0.58-3.31,3.71-3.92,3.71a10.31,10.31,0,0,1-2.57-2.11h0Zm-39.5-.29c-1.91-1-12-11-13.72-13.58C0.05,47.44-.34,45.69.29,44S40,3,42,1.95c3.44-1.82,6.54-.37,13.31,6.22,6.26,6.09,7.89,8.45,7.89,11.43v2.2L42,43C21.08,64,20.81,64.2,18.9,64.17A9.43,9.43,0,0,1,15.27,63.25Z"/>
</svg>