<svg xmlns="http://www.w3.org/2000/svg" viewBox="0 0 100 86.63"><title>ico-services-1</title><path d="M16.8,86.18a4,4,0,0,1-2.15-2.46c-0.14-.51-0.22-6.23-0.22-16.17V52.17L30.84,35c9-9.42,16.77-17.35,17.2-17.63a4.67,4.67,0,0,1,4-.17c0.64,0.34,4.58,4.39,24.44,25.08l9.08,9.47-0.05,16-0.05,16-0.63.89a5.05,5.05,0,0,1-1.47,1.33c-0.81.43-1.17,0.44-10.89,0.5l-10,.06V56l-0.53-1.07a4.93,4.93,0,0,0-2.69-2.37,87.81,87.81,0,0,0-9.26-.22c-8,0-8.73,0-9.51.39A5,5,0,0,0,38,55.17c-0.36.79-.39,1.75-0.39,16.15V86.62H27.63c-9.68,0-10,0-10.83-.44h0ZM1.7,53A3,3,0,0,1,.16,51c-0.47-1.75-1.28-.84,19.53-21.82C47.86,0.81,48.47.21,49.39,0a3.56,3.56,0,0,1,1.48.09c0.67,0.22,14,13.5,40.59,40.31,8.75,8.83,8.84,9,8.39,10.56a2.69,2.69,0,0,1-1.48,1.93,2.62,2.62,0,0,1-2.66.13c-0.52-.22-7.77-7.35-23.24-22.88L50,7.62,27.42,30.28C14.66,43.09,4.6,53,4.27,53.16A3,3,0,0,1,1.7,53h0Z"/></svg>