<?xml version="1.0" encoding="utf-8"?>
<!-- Generator: Adobe Illustrator 19.2.1, SVG Export Plug-In . SVG Version: 6.00 Build 0)  -->
<svg version="1.1" id="Слой_1" xmlns="http://www.w3.org/2000/svg" xmlns:xlink="http://www.w3.org/1999/xlink" x="0px" y="0px"
	 viewBox="0 0 164 28" style="enable-background:new 0 0 164 28;" xml:space="preserve">
<style type="text/css">
	.st0{fill:#495565;}
	.st1{fill:#FFFFFF;}
</style>
<path class="st0" d="M161.4,1c0.9,0,1.6,0.8,1.6,1.7c0,0,0,0,0,0v22.7c0,0.9-0.7,1.6-1.5,1.7c0,0,0,0,0,0H2.5C1.7,27,1,26.2,1,25.3
	c0,0,0,0,0,0V2.7C1,1.8,1.7,1,2.5,1c0,0,0,0,0,0H161.4 M161.4,0H2.5C1.1,0,0,1.2,0,2.7c0,0,0,0,0,0v22.7C0,26.8,1.1,28,2.5,28
	c0,0,0,0,0,0h158.9c1.4,0,2.6-1.2,2.6-2.7c0,0,0,0,0,0V2.7C164,1.2,162.9,0,161.4,0C161.5,0,161.5,0,161.4,0L161.4,0z"/>
<path class="st0" d="M158.6,2.7H68.9c-1.5,0-2.7,1.2-2.7,2.7c0,0,0,0,0,0v17.3c0,1.5,1.2,2.7,2.7,2.7c0,0,0,0,0,0h89.7
	c1.5,0,2.7-1.2,2.7-2.7c0,0,0,0,0,0V5.3C161.3,3.9,160.1,2.7,158.6,2.7C158.6,2.7,158.6,2.7,158.6,2.7z"/>
<path class="st0" d="M14.6,15.8l2.2,0.7c-0.2,1.1-0.8,2.1-1.7,2.8c-0.9,0.6-2,1-3.1,0.9c-1.4,0-2.8-0.5-3.8-1.6
	c-1-1.2-1.6-2.7-1.5-4.3c-0.1-1.6,0.5-3.2,1.5-4.5c1-1.1,2.4-1.6,3.9-1.6c1.3-0.1,2.5,0.4,3.4,1.2c0.6,0.6,1,1.3,1.2,2.1l-2.3,0.6
	c-0.2-1.2-1.3-2-2.5-1.9c-0.8,0-1.6,0.3-2.1,0.9c-0.6,0.9-0.9,1.9-0.8,3c-0.1,1.1,0.2,2.2,0.9,3.1c0.5,0.6,1.2,0.9,2,0.9
	c0.6,0,1.2-0.2,1.6-0.6C14.1,17.1,14.4,16.5,14.6,15.8z"/>
<path class="st0" d="M21,20v-9.5h-3.4V8.5h9.1v1.9h-3.4V20H21z"/>
<path class="st0" d="M28.2,20V8.5h3.7c0.9,0,1.8,0,2.8,0.2c0.7,0.2,1.3,0.6,1.7,1.1c0.5,0.7,0.7,1.4,0.6,2.2c0,0.6-0.1,1.2-0.4,1.8
	c-0.2,0.5-0.6,0.8-1,1.1c-0.4,0.3-0.8,0.4-1.2,0.5c-0.8,0.1-1.6,0.2-2.4,0.2h-1.5V20H28.2z M30.5,10.5v3.3h1.3c0.6,0,1.2,0,1.8-0.2
	c0.6-0.2,1-0.8,1-1.4c0-0.4-0.1-0.7-0.4-1c-0.2-0.3-0.6-0.4-0.9-0.5c-0.6-0.1-1.1-0.1-1.7-0.1L30.5,10.5L30.5,10.5z"/>
<path class="st0" d="M38.2,14.3c0-1,0.2-2,0.5-2.9c0.3-0.6,0.6-1.1,1.1-1.6c0.4-0.4,0.9-0.8,1.5-1c0.8-0.3,1.6-0.5,2.5-0.4
	c1.5-0.1,3,0.5,4.1,1.6c1.1,1.2,1.6,2.8,1.5,4.4c0.1,1.6-0.5,3.2-1.5,4.3c-1.1,1.1-2.5,1.6-4,1.6c-1.5,0.1-3-0.5-4.1-1.6
	C38.7,17.5,38.2,15.9,38.2,14.3z M40.6,14.3c-0.1,1.1,0.2,2.1,0.9,2.9c1.2,1.3,3.1,1.3,4.4,0.2c0.1-0.1,0.1-0.1,0.2-0.2
	c0.7-0.9,1-1.9,0.9-3c0.1-1.1-0.2-2.1-0.9-2.9c-1.2-1.3-3.3-1.3-4.6-0.1c0,0,0,0-0.1,0.1C40.8,12.1,40.5,13.2,40.6,14.3L40.6,14.3z"
	/>
<path class="st0" d="M51.2,8.5h2.2v7.6l4.7-7.6h2.3V20h-2.2v-7.5L53.6,20h-2.3V8.5z M57.2,5.7h1.1c0,0.6-0.3,1.2-0.8,1.7
	c-1,0.8-2.4,0.8-3.4,0c-0.5-0.4-0.7-1-0.8-1.7h1.1c0,0.3,0.2,0.6,0.4,0.8c0.6,0.4,1.4,0.4,2,0C57.1,6.3,57.2,6,57.2,5.7L57.2,5.7z"
	/>
<path class="st1" d="M75.8,7.9h9.2v12h-2.3V10h-4.5v10h-2.3V7.9z"/>
<path class="st1" d="M87.3,20v-12h3.7c0.9,0,1.9,0,2.8,0.2c0.7,0.2,1.3,0.6,1.7,1.2c0.5,0.7,0.7,1.5,0.7,2.3c0,0.6-0.1,1.3-0.4,1.9
	c-0.2,0.5-0.6,0.9-1,1.2c-0.4,0.3-0.8,0.5-1.2,0.6c-0.8,0.1-1.6,0.2-2.4,0.2h-1.5V20H87.3z M89.7,10v3.4h1.3c0.6,0,1.2,0,1.8-0.2
	c0.3-0.1,0.6-0.3,0.7-0.6c0.2-0.3,0.3-0.6,0.3-0.9c0-0.8-0.5-1.5-1.3-1.6C91.9,10,91.3,10,90.8,10H89.7z"/>
<path class="st1" d="M98.1,20v-12h8.6v2h-6.2v2.7h5.8v2h-5.8V18h6.4v2H98.1z"/>
<path class="st1" d="M116.2,15.6l2.3,0.7c-0.2,1.1-0.8,2.2-1.7,2.9c-0.9,0.7-2,1-3.1,1c-1.4,0-2.8-0.6-3.8-1.6
	c-1-1.3-1.6-2.9-1.5-4.5c-0.1-1.7,0.4-3.4,1.5-4.7c1-1.1,2.4-1.7,3.9-1.7c1.3-0.1,2.5,0.4,3.4,1.2c0.6,0.6,1,1.4,1.2,2.2l-2.3,0.6
	c-0.1-0.6-0.4-1.1-0.8-1.5c-0.4-0.4-1-0.6-1.6-0.5c-0.8,0-1.6,0.4-2.1,1c-0.6,0.9-0.9,2-0.8,3.1c-0.1,1.1,0.2,2.3,0.8,3.3
	c0.5,0.6,1.2,1,2,1c0.6,0,1.2-0.2,1.6-0.6C115.7,17,116.1,16.3,116.2,15.6z"/>
<path class="st1" d="M122.6,20V10h-3.4V8h9.2v2H125v10H122.6L122.6,20z"/>
<path class="st1" d="M129.9,7.9h2.2v8l4.7-8h2.3v12h-2.2v-7.9l-4.7,7.9h-2.3V7.9z"/>
<path class="st1" d="M148.7,7.9v5.1c0.3,0,0.7-0.2,0.9-0.4c0.3-0.6,0.6-1.2,0.8-1.8c0.2-0.9,0.7-1.7,1.4-2.4
	c0.7-0.4,1.6-0.6,2.4-0.5h0.3v1.8h-0.4c-0.3,0-0.7,0-1,0.2c-0.2,0.1-0.4,0.3-0.5,0.6c-0.3,0.5-0.5,1-0.7,1.6c-0.1,0.3-0.3,0.7-0.5,1
	c-0.2,0.3-0.5,0.6-0.9,0.8c0.5,0.2,1,0.5,1.3,0.9c0.4,0.6,0.8,1.3,1.1,2l1.6,3.3h-2.7l-1.4-3.1c0-0.1-0.1-0.2-0.1-0.3l-0.3-0.6
	c-0.2-0.4-0.4-0.8-0.7-1.1c-0.2-0.2-0.4-0.2-0.7-0.2V20h-2.3v-5.3c-0.2,0-0.5,0.1-0.7,0.2c-0.3,0.3-0.6,0.7-0.7,1.1
	c-0.2,0.3-0.3,0.5-0.3,0.6l-0.1,0.3l-1.4,3.1h-2.7l1.5-3.3c0.3-0.7,0.7-1.3,1.1-1.9c0.3-0.5,0.8-0.8,1.3-1c-0.4-0.2-0.7-0.5-0.9-0.8
	c-0.2-0.3-0.3-0.7-0.5-1c-0.2-0.5-0.4-1-0.6-1.5c-0.1-0.2-0.3-0.4-0.5-0.6c-0.3-0.1-0.7-0.2-1.1-0.2h-0.3V7.9h0.3
	c0.8-0.1,1.7,0.1,2.4,0.5c0.7,0.7,1.1,1.5,1.4,2.4c0.2,0.6,0.5,1.3,0.8,1.9c0.2,0.3,0.5,0.4,0.9,0.4V7.9H148.7L148.7,7.9z"/>
<title>text-logo</title>
</svg>
